<svg id="e9BEh4A820i1" xmlns="http://www.w3.org/2000/svg" xmlns:xlink="http://www.w3.org/1999/xlink" viewBox="0 0 184 152.85" shape-rendering="geometricPrecision" text-rendering="geometricPrecision"><g id="e9BEh4A820i2" transform="translate(0 0.000001)"><path d="M33.1376,27.0603h21.2906C65.1985,16.8929,79.1954,10.7497,94.5001,10.7497c15.3049,0,29.3019,6.1432,40.0719,16.3106h22.447v1.157c0,4.3283,1.754,8.2475,4.591,11.084c2.836,2.8357,6.755,4.5908,11.084,4.5908h1.157v5.1916v6.5614v21.6339h-2.314v-21.6339-6.5614-2.9149c-4.506-.2858-8.562-2.2314-11.563-5.2317-3.001-3.0005-4.946-7.0567-5.232-11.563h-120.4845c-.286,4.5063-2.2314,8.5625-5.2319,11.563-3.0003,3.0003-7.0567,4.9459-11.5633,5.2317v2.3135v7.1628v21.6339h-2.3133v-21.6339-7.1628-4.5902h1.1568c4.3288,0,8.248-1.7551,11.084-4.5908c2.8359-2.836,4.591-6.7557,4.591-11.084v-1.157h1.1568Zm24.7292,0h73.2662c-10.082-8.7658-22.806-13.9972-36.6329-13.9972-13.8271,0-26.5506,5.2314-36.6333,13.9972ZM134.572,129.939c-10.77,10.168-24.767,16.311-40.0719,16.311-15.3048,0-29.3017-6.143-40.0721-16.311h-22.4472v-1.156c0-4.329-1.7551-8.249-4.591-11.084-2.8365-2.837-6.7552-4.591-11.084-4.591h-1.1568v-2.277-2.868h2.3133v2.868c4.5066.286,8.563,2.231,11.5633,5.232c3.0005,3,4.9459,7.057,5.2319,11.563h120.4845c.286-4.506,2.231-8.563,5.232-11.563c3.001-3.001,7.057-4.946,11.563-5.232v-2.868h2.314v2.868v2.277h-1.157c-4.329,0-8.248,1.754-11.084,4.591-2.837,2.836-4.591,6.755-4.591,11.084v1.156h-22.447Zm-76.7054,0c10.0827,8.767,22.8063,13.998,36.6335,13.998c13.8269,0,26.5509-5.231,36.6339-13.998h-73.2674Z" clip-rule="evenodd" fill="#4e4138" fill-rule="evenodd"/><path d="M23.8811,104.035c-1.2729,0-2.4475-.234-3.5237-.702s-1.9981-1.137-2.7656-2.008c-.7675-.87-1.3664-1.9275-1.7969-3.1722s-.6458-2.6532-.6458-4.2256c0-1.6471.2387-3.1024.7161-4.3659.4772-1.2634,1.1323-2.3257,1.9652-3.1867.8331-.861,1.8017-1.5115,2.906-1.9513c1.1044-.4399,2.2835-.6598,3.5377-.6598c1.2915,0,2.3164.2106,3.0744.6363.7581.4259,1.2588.8611,1.5022,1.301h.1684v-1.6004h3.2569v6.2331h-3.2569v-1.2449c0-.978-.2995-1.7594-.8985-2.3444s-1.5722-.875-2.9199-.875c-1.7034,0-2.9715.4352-3.8044,1.3102-.833.8705-1.2495,2.2228-1.2495,4.0618v5.372c0,1.708.3696,2.995,1.1091,3.8658.7393.875,1.7829,1.31,3.1306,1.31c1.3101,0,2.2742-.332,2.8918-1.002.6178-.669.9266-1.4971.9266-2.4938v-2.6533h-2.8078v-1.8531h8.732v1.8531h-1.432v8.0581h-1.5442l-1.7127-2.812h-.1965c-.0936.318-.2901.659-.5897,1.024-.2994.365-.6878.707-1.1651,1.016s-1.02.571-1.6285.786c-.6082.215-1.2681.323-1.9793.323Zm12.7188-2.19h1.9653v-15.8916h-1.9653v-1.853h8.4792v1.853h-1.9655v15.8916h1.9655v1.853h-8.4792v-1.853Zm10.7814,0h1.9653v-15.8916h-1.9653v-1.853h7.5808L62.992,98.0545h.1685v-12.1011h-1.9655v-1.853h6.0928v1.853h-1.9374v17.7446h-4.0991L51.7052,87.3854h-.1684v14.4596h1.9652v1.853h-6.1207v-1.853Zm22.2088,0h1.9653v-15.8916h-1.9653v-1.853h8.4792v1.853h-1.9654v15.8916h1.9654v1.853h-8.4792v-1.853Zm14.7963,0h2.2181v-5.9804l-5.2783-9.9112h-1.404v-1.853h8.2547v1.853h-1.9654l3.7623,7.3562h.1123l3.9026-7.3562h-1.9654v-1.853h5.812v1.853h-1.4319L91.153,95.2468v6.5982h2.218v1.853h-8.9846v-1.853Zm12.9996,0h1.4038l6.0932-17.7446h3.874l6.093,17.7446h1.404v1.853h-8.227v-1.853h2.246l-1.347-4.1275h-6.402l-1.348,4.1275h2.247v1.853h-6.037v-1.853Zm5.7-6.0647h5.334l-2.639-8.2545h-.112l-2.583,8.2545Zm16.874,6.0647h2.667v-15.7231h-3.65v3.2008h-3.257v-5.2223h18.363v5.2223h-3.257v-3.2008h-3.65v15.7231h2.667v1.853h-9.883v-1.853Zm24.932.084c.58,0,1.123-.093,1.629-.281.505-.187.949-.472,1.333-.865s.688-.8941.913-1.5118c.224-.6178.337-1.3524.337-2.2086v-6.3267c0-.8563-.113-1.591-.337-2.2087-.225-.6178-.529-1.1185-.913-1.5116s-.828-.6784-1.333-.8657c-.506-.1871-1.049-.2807-1.629-.2807s-1.123.0936-1.628.2807c-.506.1873-.95.4727-1.334.8657s-.688.8938-.912,1.5116c-.225.6177-.337,1.3524-.337,2.2087v6.3267c0,.8562.112,1.5908.337,2.2086.224.6177.528,1.1188.912,1.5118s.828.678,1.334.865c.505.188,1.048.281,1.628.281Zm0,2.106c-1.31,0-2.527-.225-3.65-.674s-2.096-1.1-2.92-1.951c-.824-.852-1.469-1.9095-1.937-3.173s-.702-2.7094-.702-4.3378.234-3.0744.702-4.3379s1.113-2.321,1.937-3.1726c.824-.8518,1.797-1.5022,2.92-1.9513c1.123-.4494,2.34-.6739,3.65-.6739s2.527.2245,3.65.6739c1.123.4491,2.096,1.0995,2.92,1.9513.824.8516,1.469,1.9092,1.937,3.1726s.702,2.7094.702,4.3379-.234,3.0743-.702,4.3378-1.113,2.321-1.937,3.173c-.824.851-1.797,1.502-2.92,1.951s-2.34.674-3.65.674Zm11.764-18.0816h-1.404v-1.853h8.255v1.853h-2.246l2.555,8.3108l1.656,6.0088h.169l1.769-6.0088l2.639-8.3108h-2.246v-1.853h6.036v1.853h-1.404l-5.952,17.7446h-3.874l-5.953-17.7446Z" clip-rule="evenodd" fill="#4e4138" fill-rule="evenodd"/><path d="M91.3164,11.9983c.7581-.0433,1.5213-.0669,2.2867-.0791l-1.2668,16.298-1.0199-16.2189Z" clip-rule="evenodd" fill="#4e4138" fill-rule="evenodd"/><path d="M60.1573,23.7093c.337-.257.6767-.511,1.019-.761l-.602,5.2689-.417-4.5079Z" clip-rule="evenodd" fill="#4e4138" fill-rule="evenodd"/><path d="M86.8008,12.442c.7632-.1071,1.5326-.1932,2.3046-.2684L87.8219,28.2171L86.8008,12.442Z" clip-rule="evenodd" fill="#4e4138" fill-rule="evenodd"/><path d="M82.3104,13.2625c.7506-.1696,1.5077-.3187,2.2679-.4573L83.308,28.2171l-.9976-14.9546Z" clip-rule="evenodd" fill="#4e4138" fill-rule="evenodd"/><path d="M77.848,14.4694c.717-.226,1.4404-.4345,2.1678-.6316L78.7936,28.2171L77.848,14.4694Z" clip-rule="evenodd" fill="#4e4138" fill-rule="evenodd"/><path d="M73.4176,16.0768c.6597-.2706,1.325-.5298,1.9956-.7755L74.2797,28.2171l-.8621-12.1403Z" clip-rule="evenodd" fill="#4e4138" fill-rule="evenodd"/><path d="M69.0234,18.1043c.5744-.2951,1.1528-.5818,1.7368-.8572l-.9949,10.9701-.7419-10.1129Z" clip-rule="evenodd" fill="#4e4138" fill-rule="evenodd"/><path d="M64.6717,20.5781c.4542-.285.9127-.5626,1.3744-.835l-.7948,8.4741-.5796-7.6391Z" clip-rule="evenodd" fill="#4e4138" fill-rule="evenodd"/><path d="M95.3972,11.9192c.7654.0122,1.5287.0358,2.2866.0791L96.664,28.2172l-1.2668-16.298Z" clip-rule="evenodd" fill="#4e4138" fill-rule="evenodd"/><path d="M127.824,22.9483c.342.25.682.504,1.019.761l-.417,4.5079-.602-5.2689Z" clip-rule="evenodd" fill="#4e4138" fill-rule="evenodd"/><path d="M99.895,12.1736c.772.0752,1.541.1613,2.305.2684l-1.022,15.7751-1.283-16.0435Z" clip-rule="evenodd" fill="#4e4138" fill-rule="evenodd"/><path d="M104.422,12.8052c.76.1386,1.517.2877,2.268.4573l-.998,14.9546-1.27-15.4119Z" clip-rule="evenodd" fill="#4e4138" fill-rule="evenodd"/><path d="M108.984,13.8378c.728.1971,1.451.4056,2.168.6316l-.945,13.7477-1.223-14.3793Z" clip-rule="evenodd" fill="#4e4138" fill-rule="evenodd"/><path d="M113.587,15.3013c.671.2457,1.336.5049,1.996.7755l-.862,12.1403-1.134-12.9158Z" clip-rule="evenodd" fill="#4e4138" fill-rule="evenodd"/><path d="M118.24,17.2471c.584.2754,1.162.5621,1.737.8572l-.742,10.1129-.995-10.9701Z" clip-rule="evenodd" fill="#4e4138" fill-rule="evenodd"/><path d="M122.954,19.7431c.462.2724.92.55,1.375.835l-.58,7.6391-.795-8.4741Z" clip-rule="evenodd" fill="#4e4138" fill-rule="evenodd"/><path d="M91.3164,145.002c.7581.043,1.5213.066,2.2867.079l-1.2668-16.298-1.0199,16.219Z" clip-rule="evenodd" fill="#4e4138" fill-rule="evenodd"/><path d="M60.1573,133.291c.337.257.6767.511,1.019.761l-.602-5.269-.417,4.508Z" clip-rule="evenodd" fill="#4e4138" fill-rule="evenodd"/><path d="M86.8008,144.558c.7632.107,1.5326.193,2.3046.268l-1.2835-16.043-1.0211,15.775Z" clip-rule="evenodd" fill="#4e4138" fill-rule="evenodd"/><path d="M82.3104,143.737c.7506.17,1.5077.319,2.2679.458L83.308,128.783l-.9976,14.954Z" clip-rule="evenodd" fill="#4e4138" fill-rule="evenodd"/><path d="M77.848,142.53c.717.226,1.4404.435,2.1678.632l-1.2222-14.379-.9456,13.747Z" clip-rule="evenodd" fill="#4e4138" fill-rule="evenodd"/><path d="M73.4176,140.923c.6597.271,1.325.53,1.9956.776l-1.1335-12.916-.8621,12.14Z" clip-rule="evenodd" fill="#4e4138" fill-rule="evenodd"/><path d="M69.0234,138.896c.5744.295,1.1528.581,1.7368.857l-.9949-10.97-.7419,10.113Z" clip-rule="evenodd" fill="#4e4138" fill-rule="evenodd"/><path d="M64.6717,136.422c.4542.285.9127.562,1.3744.835l-.7948-8.474-.5796,7.639Z" clip-rule="evenodd" fill="#4e4138" fill-rule="evenodd"/><path d="M95.3972,145.081c.7654-.013,1.5287-.036,2.2866-.079L96.664,128.783l-1.2668,16.298Z" clip-rule="evenodd" fill="#4e4138" fill-rule="evenodd"/><path d="M127.824,134.052c.342-.25.682-.504,1.019-.761l-.417-4.508-.602,5.269Z" clip-rule="evenodd" fill="#4e4138" fill-rule="evenodd"/><path d="M99.895,144.826c.772-.075,1.541-.161,2.305-.268l-1.022-15.775-1.283,16.043Z" clip-rule="evenodd" fill="#4e4138" fill-rule="evenodd"/><path d="M104.422,144.195c.76-.139,1.517-.288,2.268-.458l-.998-14.954-1.27,15.412Z" clip-rule="evenodd" fill="#4e4138" fill-rule="evenodd"/><path d="M108.984,143.162c.728-.197,1.451-.406,2.168-.632l-.945-13.747-1.223,14.379Z" clip-rule="evenodd" fill="#4e4138" fill-rule="evenodd"/><path d="M113.587,141.699c.671-.246,1.336-.505,1.996-.776l-.862-12.14-1.134,12.916Z" clip-rule="evenodd" fill="#4e4138" fill-rule="evenodd"/><path d="M118.24,139.753c.584-.276,1.162-.562,1.737-.857l-.742-10.113-.995,10.97Z" clip-rule="evenodd" fill="#4e4138" fill-rule="evenodd"/><path d="M122.954,137.257c.462-.273.92-.55,1.375-.835l-.58-7.639-.795,8.474Z" clip-rule="evenodd" fill="#4e4138" fill-rule="evenodd"/><path d="M110.104,70.5602c-.906,1.3068-2.451,2.2967-2.451,2.2967h-2.706v0v0h-2.705c0,0-1.545-.9899-2.4509-2.2967-.1778-.2566-.3283-.5406-.4505-.8421v.0002c-1.4085-.3759-1.5259-1.99-1.5165-3.2348.0085-1.1441-.2301-1.4821-1.2786-1.6264-.1096-.4803-.1561-.8293.3019-1.2198c1.3015,0,2.2906.4268,2.7107,1.7001.3645-.5855.8969-1.0282,1.6079-1.2117v-.8803h.182L97.861,57.567c-.1576-.2566-.1636-.5562-.0166-.819s.4054-.4143.7067-.4143c3.8139,0,7.6289,0,11.4429,0c.271,0,.503.1201.66.3405.157.2205.194.4797.105.7351l-2.03,5.8361v.8803c2.469.6373,2.789,4.3943,1.375,6.4345Zm-8.064-7.3148h.473.382c-.31-.9748.032-1.3336,1.419-1.5885-.018-.0602-.028-.124-.028-.1902c0-.3652.296-.6612.661-.6612.366,0,.662.296.662.6612c0,.0662-.01.13-.028.1902c1.359.25,1.583.5297,1.357,1.5885h.442.657l.801-4.2945c.041-.2226-.013-.4311-.158-.6053s-.34-.2657-.566-.2657h-7.231c-.257,0-.477.1195-.617.3345s-.16.4652-.056.6996l1.83,4.1314Zm3.283-23.5198c-.016-.2178-.178-.4843-.16-1.0413.031-.989.732-1.479.906-2.7979.141-1.0614-.221-2.0723-.834-2.8389-.139-.1742-.441-.5122-.618-.6224.053.1191.136.2548.2.3797c1.607,3.1082.018,3.8057-.06,5.1086-.022.3624.072.7054.184,1.0057.055.1481.115.2829.18.4223.065.1361.144.2593.202.3842Zm.683-.0568c.028-.2735-.042-.4165.051-.8791.284-1.411,1.564-1.6959,2.094-1.1756.417.4089.251,1.1411-.365,1.0253-.346-.065-.399-.3612-.472-.4586-.18.4479.054.8582.378.9997.386.168.817.0374,1.106-.2735.48-.5154.298-1.5391-.508-1.9766-.755-.4103-1.596-.1813-2.142.4532-.502.5828-.568,1.5523-.142,2.2852Zm.233-3.0189c.323-.1722.694-.542.887-.8728.501-.8582.045-1.9617-.135-2.9115-.15-.7928-.089-.9017-.069-1.6245-.162.2235-.35.9411-.388,1.2812-.137,1.2047.402,2.0998.272,2.9925-.057.3912-.237.7176-.47,1.0077-.042.0529-.07.0683-.097.1274Zm-.578,5.4811c.535,0,1.123-.0759,1.57-.2634.169-.071.471-.2399.362-.488-.092-.21-.339-.238-.555-.3601.492.022,1.708.4381,1.009.9065-.747.5005-2.709.4879-3.649.1597l-.318-.1474c-.06-.036-.045-.0226-.08-.0654.706.1929.848.2581,1.661.2581Zm-7.973-1.7505c1.3197.1196,2.411.6923,3.275,1.1771c1.15.6458,1.909,1.3059,2.278,1.973l.256.463v0c.005-.6289-.033-1.0286-.236-1.6843-.086-.2793-.275-.6062-.108-.885.241-.4023.999-.6089,1.613-.6983c1.108-.1611,3.296-.0836,3.783.6875.178.2812-.009.6052-.095.8804-.34,1.0827-.392,1.863-.053,2.9407.23.7327.724,1.6053,1.03,2.4304.052.1406.101.2946.141.4414.112.413.201.9511-.059,1.3298-.234.3413-.699.593-1.095.7703-1.107.4953-3.134.5358-4.347.2515-.374-.0877-.719-.2031-1.025-.3725-.671-.3703-1.189-.6696-.968-1.7286.157-.7566.497-1.3891.786-2.0323.104-.2328.192-.4329.265-.6094-.182-.633-.443-1.1882-.807-1.5439-.908-.8871-2.3847-1.327-4.4287-1.327-.4345,0-2.9867.1092-3.3837.1466-2.2953.2158-2.4475-2.2581-.3455-2.6615c1.2443-.2388,2.936-.0024,3.5239.0511ZM82.1675,45.2079c-2.7476,3.4908-4.414,8.5295-4.0635,13.1299.5313,6.9806,5.6862,14.0712,12.694,15.1922c2.1053.3371,3.8286.0003,4.8153-.9502c2.9116-2.8047-.3094-12.3605-1.433-15.5442-.6605-1.8719-1.507-3.5569-2.0484-5.3034-.8542-2.7542-1.969-6.7928-.1197-9.4791.901-1.3082.1324-1.7692-.5267-1.8235-3.0496-.2502-7.5042,2.4738-9.318,4.7783ZM93.2947,58.5898c-1.6979-.9986-3.3231-2.1222-4.837-4.3065c1.0151,2.0018,2.8498,3.9241,5.0855,5.1868.4411,1.5637.8801,3.1351,1.2576,4.7183.0473.1986.09.3987.1278.5995-2.8031-1.2983-5.5579-3.2167-7.8384-5.9601c1.4416,2.5918,4.7945,5.2479,7.9641,6.7444.1647,1.2573.1579,2.5116.0192,3.6272-.0466-.0299-.1009-.0581-.1635-.0822-2.7487-1.0735-4.9093-1.8113-7.0606-3.5976c2.4619,2.1554,3.9936,2.9428,7.145,4.2762-.2053,1.4184-.9352,3.0379-3.078,3.0106-.3565-.0047-1.1128-.1118-1.8254-.4337-.0773-.0375-.1573-.077-.2399-.1179-.0322-.0174-.0638-.0335-.0945-.0485-1.4652-.7624-4.8339-3.2485-5.9237-4.5795.6673.059,1.1633.3534,2.0276.3-1.2988-1.5004-2.2096-2.2273-3.1016-4.3602l1.6446.4197c-.6995-1.7131-1.1542-3.1735-1.2592-4.8942.4936.2102.965.6201,1.9456,1.0403-.8203-2.5891-.644-3.9125.0087-6.0422.8125.3049,1.0234.4559,1.6763.7465-.4144-1.1553-.7172-3.3267-.0193-4.4479.8889.5604,1.311.6202,2.0368,1.2581-.0406-1.2335.7991-4.27,1.7846-4.9578l.0252.0272c.0058,4.0229,1.5553,7.8373,2.6925,11.8735Z" clip-rule="evenodd" fill="#4e4138" fill-rule="evenodd"/><path d="M58.7716,119.45v-3.141l3.0988,3.141h2.0941l-3.7921-3.834l3.2969-3.113h-1.9527l-2.745,2.632v-2.632h-1.5281v6.947h1.5281Zm9.3672-1.16c-.6651,0-1.2028-.226-1.6415-.665-.4386-.439-.6508-.99-.6508-1.655c0-.651.2122-1.203.6508-1.642.4387-.438.9905-.665,1.6415-.665.6509,0,1.1885.227,1.6272.665.4386.439.6508.991.6508,1.642c0,.665-.2122,1.216-.6508,1.655-.4387.439-.9763.665-1.6272.665Zm0,1.344c1.1036,0,2.0091-.353,2.7308-1.061.7217-.722,1.0755-1.585,1.0755-2.603c0-1.019-.3538-1.882-1.0755-2.59-.7217-.707-1.6272-1.061-2.7308-1.061-1.1179,0-2.0235.354-2.7451,1.061-.7216.708-1.0754,1.571-1.0754,2.59c0,1.032.3538,1.896,1.0754,2.603.7216.708,1.6272,1.061,2.7451,1.061Zm10.4424,2.646v-2.716c1.2169-.043,2.1791-.382,2.8723-1.047.6934-.666,1.0471-1.515,1.0471-2.547c0-2.052-1.4433-3.453-3.9194-3.58v-2.844h-1.5282v2.844c-2.4763.127-3.9195,1.528-3.9195,3.58c0,1.032.3539,1.881,1.0471,2.547.6933.665,1.6555,1.004,2.8724,1.047v2.716h1.5282Zm-1.5282-4.004c-1.4291,0-2.4337-.934-2.4337-2.306c0-1.373,1.0046-2.278,2.4337-2.293v4.599Zm1.5282-4.599c1.4291.015,2.4337.92,2.4337,2.293c0,1.372-1.0046,2.306-2.4337,2.306v-4.599Zm5.1081,2.293c0,1.089.3678,1.966,1.1036,2.646.75.679,1.6556,1.018,2.7309,1.018c1.0754,0,1.9243-.226,2.5611-.679v-1.287c-.6933.41-1.4292.622-2.2357.622-1.4149,0-2.4337-.693-2.6177-1.868h5.3204v-.396c0-1.259-.4387-2.405-1.4716-3.141-.5094-.382-1.1178-.566-1.8253-.566-1.0613,0-1.9102.354-2.5752,1.047s-.9905,1.571-.9905,2.604Zm1.5565-.708c.099-.905.8205-1.655,1.9384-1.655.566,0,1.0046.169,1.3301.509s.4812.722.4952,1.146h-3.7637Zm12.1405,4.188l3.7497-4.726v4.726h1.528v-6.947h-1.429l-3.7497,4.712v-4.712h-1.5282v6.947h1.4292Zm17.0367,0v-6.947h-1.529v3.085c-.467.24-.99.353-1.57.353-1.189,0-1.613-.467-1.613-1.811v-1.627h-1.528v1.755c0,2.193.962,3.013,2.886,3.013.693,0,1.302-.113,1.825-.325v2.504h1.529Zm8.702-1.188c-.34,0-.58-.255-.58-.694v-2.589c0-1.698-1.288-2.66-3.212-2.66-1.005,0-1.84.198-2.533.594v1.345c.665-.411,1.401-.623,2.193-.623c1.358,0,2.037.509,2.037,1.514v.382c-.636-.354-1.386-.538-2.221-.538-.778,0-1.443.198-1.981.609-.538.396-.807.962-.807,1.698c0,.721.241,1.301.736,1.712.495.41,1.118.622,1.868.622c1.075,0,1.924-.353,2.561-1.075.184.665.679.99,1.458.99.382,0,.679-.07.891-.226v-1.16c-.127.07-.255.099-.41.099Zm-2.095-.778c-.438.467-1.188.834-1.981.834-.891,0-1.499-.367-1.499-1.103c0-.679.608-1.076,1.627-1.076.651,0,1.273.17,1.853.496v.849Zm5.448,1.966l3.75-4.726v4.726h1.528v-6.947h-1.429l-3.75,4.712v-4.712h-1.528v6.947h1.429Zm1.924-7.881c1.415,0,2.434-.906,2.448-2.335h-1.301c-.015.68-.481,1.161-1.161,1.161-.693,0-1.146-.481-1.146-1.161h-1.287c.014,1.429,1.018,2.335,2.447,2.335Z" clip-rule="evenodd" fill="#4e4138" fill-rule="evenodd"/></g>
<script><![CDATA[
!function(t,n){"object"==typeof exports&&"undefined"!=typeof module?module.exports=n():"function"==typeof __SVGATOR_DEFINE__&&__SVGATOR_DEFINE__.amd?__SVGATOR_DEFINE__(n):((t="undefined"!=typeof globalThis?globalThis:t||self).__SVGATOR_PLAYER__=t.__SVGATOR_PLAYER__||{},t.__SVGATOR_PLAYER__["5c7f360c"]=n())}(this,(function(){"use strict";function t(t,n){var e=Object.keys(t);if(Object.getOwnPropertySymbols){var r=Object.getOwnPropertySymbols(t);n&&(r=r.filter((function(n){return Object.getOwnPropertyDescriptor(t,n).enumerable}))),e.push.apply(e,r)}return e}function n(n){for(var e=1;e<arguments.length;e++){var r=null!=arguments[e]?arguments[e]:{};e%2?t(Object(r),!0).forEach((function(t){o(n,t,r[t])})):Object.getOwnPropertyDescriptors?Object.defineProperties(n,Object.getOwnPropertyDescriptors(r)):t(Object(r)).forEach((function(t){Object.defineProperty(n,t,Object.getOwnPropertyDescriptor(r,t))}))}return n}function e(t){return(e="function"==typeof Symbol&&"symbol"==typeof Symbol.iterator?function(t){return typeof t}:function(t){return t&&"function"==typeof Symbol&&t.constructor===Symbol&&t!==Symbol.prototype?"symbol":typeof t})(t)}function r(t,n){if(!(t instanceof n))throw new TypeError("Cannot call a class as a function")}function i(t,n){for(var e=0;e<n.length;e++){var r=n[e];r.enumerable=r.enumerable||!1,r.configurable=!0,"value"in r&&(r.writable=!0),Object.defineProperty(t,r.key,r)}}function u(t,n,e){return n&&i(t.prototype,n),e&&i(t,e),t}function o(t,n,e){return n in t?Object.defineProperty(t,n,{value:e,enumerable:!0,configurable:!0,writable:!0}):t[n]=e,t}function a(t){return(a=Object.setPrototypeOf?Object.getPrototypeOf:function(t){return t.__proto__||Object.getPrototypeOf(t)})(t)}function l(t,n){return(l=Object.setPrototypeOf||function(t,n){return t.__proto__=n,t})(t,n)}function s(){if("undefined"==typeof Reflect||!Reflect.construct)return!1;if(Reflect.construct.sham)return!1;if("function"==typeof Proxy)return!0;try{return Boolean.prototype.valueOf.call(Reflect.construct(Boolean,[],(function(){}))),!0}catch(t){return!1}}function f(t,n,e){return(f=s()?Reflect.construct:function(t,n,e){var r=[null];r.push.apply(r,n);var i=new(Function.bind.apply(t,r));return e&&l(i,e.prototype),i}).apply(null,arguments)}function c(t,n){if(n&&("object"==typeof n||"function"==typeof n))return n;if(void 0!==n)throw new TypeError("Derived constructors may only return object or undefined");return function(t){if(void 0===t)throw new ReferenceError("this hasn't been initialised - super() hasn't been called");return t}(t)}function h(t,n,e){return(h="undefined"!=typeof Reflect&&Reflect.get?Reflect.get:function(t,n,e){var r=function(t,n){for(;!Object.prototype.hasOwnProperty.call(t,n)&&null!==(t=a(t)););return t}(t,n);if(r){var i=Object.getOwnPropertyDescriptor(r,n);return i.get?i.get.call(e):i.value}})(t,n,e||t)}function v(t){return function(t){if(Array.isArray(t))return y(t)}(t)||function(t){if("undefined"!=typeof Symbol&&null!=t[Symbol.iterator]||null!=t["@@iterator"])return Array.from(t)}(t)||function(t,n){if(!t)return;if("string"==typeof t)return y(t,n);var e=Object.prototype.toString.call(t).slice(8,-1);"Object"===e&&t.constructor&&(e=t.constructor.name);if("Map"===e||"Set"===e)return Array.from(t);if("Arguments"===e||/^(?:Ui|I)nt(?:8|16|32)(?:Clamped)?Array$/.test(e))return y(t,n)}(t)||function(){throw new TypeError("Invalid attempt to spread non-iterable instance.\nIn order to be iterable, non-array objects must have a [Symbol.iterator]() method.")}()}function y(t,n){(null==n||n>t.length)&&(n=t.length);for(var e=0,r=new Array(n);e<n;e++)r[e]=t[e];return r}Number.isInteger||(Number.isInteger=function(t){return"number"==typeof t&&isFinite(t)&&Math.floor(t)===t}),Number.EPSILON||(Number.EPSILON=2220446049250313e-31);var g=d(Math.pow(10,-6));function d(t){var n=arguments.length>1&&void 0!==arguments[1]?arguments[1]:6;if(Number.isInteger(t))return t;var e=Math.pow(10,n);return Math.round((+t+Number.EPSILON)*e)/e}function p(t,n){var e=arguments.length>2&&void 0!==arguments[2]?arguments[2]:g;return Math.abs(t-n)<e}var m=Math.PI/180;function b(t){return t}function w(t,n,e){var r=1-e;return 3*e*r*(t*r+n*e)+e*e*e}function A(){var t=arguments.length>0&&void 0!==arguments[0]?arguments[0]:0,n=arguments.length>1&&void 0!==arguments[1]?arguments[1]:0,e=arguments.length>2&&void 0!==arguments[2]?arguments[2]:1,r=arguments.length>3&&void 0!==arguments[3]?arguments[3]:1;return t<0||t>1||e<0||e>1?null:p(t,n)&&p(e,r)?b:function(i){if(i<=0)return t>0?i*n/t:0===n&&e>0?i*r/e:0;if(i>=1)return e<1?1+(i-1)*(r-1)/(e-1):1===e&&t<1?1+(i-1)*(n-1)/(t-1):1;for(var u,o=0,a=1;o<a;){var l=w(t,e,u=(o+a)/2);if(p(i,l))break;l<i?o=u:a=u}return w(n,r,u)}}function _(){return 1}function x(t){return 1===t?1:0}function k(){var t=arguments.length>0&&void 0!==arguments[0]?arguments[0]:1,n=arguments.length>1&&void 0!==arguments[1]?arguments[1]:0;if(1===t){if(0===n)return x;if(1===n)return _}var e=1/t;return function(t){return t>=1?1:(t+=n*e)-t%e}}var S=Math.sin,O=Math.cos,j=Math.acos,E=Math.asin,M=Math.tan,P=Math.atan2,I=Math.PI/180,R=180/Math.PI,F=Math.sqrt,N=function(){function t(){var n=arguments.length>0&&void 0!==arguments[0]?arguments[0]:1,e=arguments.length>1&&void 0!==arguments[1]?arguments[1]:0,i=arguments.length>2&&void 0!==arguments[2]?arguments[2]:0,u=arguments.length>3&&void 0!==arguments[3]?arguments[3]:1,o=arguments.length>4&&void 0!==arguments[4]?arguments[4]:0,a=arguments.length>5&&void 0!==arguments[5]?arguments[5]:0;r(this,t),this.m=[n,e,i,u,o,a],this.i=null,this.w=null,this.s=null}return u(t,[{key:"determinant",get:function(){var t=this.m;return t[0]*t[3]-t[1]*t[2]}},{key:"isIdentity",get:function(){if(null===this.i){var t=this.m;this.i=1===t[0]&&0===t[1]&&0===t[2]&&1===t[3]&&0===t[4]&&0===t[5]}return this.i}},{key:"point",value:function(t,n){var e=this.m;return{x:e[0]*t+e[2]*n+e[4],y:e[1]*t+e[3]*n+e[5]}}},{key:"translateSelf",value:function(){var t=arguments.length>0&&void 0!==arguments[0]?arguments[0]:0,n=arguments.length>1&&void 0!==arguments[1]?arguments[1]:0;if(!t&&!n)return this;var e=this.m;return e[4]+=e[0]*t+e[2]*n,e[5]+=e[1]*t+e[3]*n,this.w=this.s=this.i=null,this}},{key:"rotateSelf",value:function(){var t=arguments.length>0&&void 0!==arguments[0]?arguments[0]:0;if(t%=360){var n=S(t*=I),e=O(t),r=this.m,i=r[0],u=r[1];r[0]=i*e+r[2]*n,r[1]=u*e+r[3]*n,r[2]=r[2]*e-i*n,r[3]=r[3]*e-u*n,this.w=this.s=this.i=null}return this}},{key:"scaleSelf",value:function(){var t=arguments.length>0&&void 0!==arguments[0]?arguments[0]:1,n=arguments.length>1&&void 0!==arguments[1]?arguments[1]:1;if(1!==t||1!==n){var e=this.m;e[0]*=t,e[1]*=t,e[2]*=n,e[3]*=n,this.w=this.s=this.i=null}return this}},{key:"skewSelf",value:function(t,n){if(n%=360,(t%=360)||n){var e=this.m,r=e[0],i=e[1],u=e[2],o=e[3];t&&(t=M(t*I),e[2]+=r*t,e[3]+=i*t),n&&(n=M(n*I),e[0]+=u*n,e[1]+=o*n),this.w=this.s=this.i=null}return this}},{key:"resetSelf",value:function(){var t=arguments.length>0&&void 0!==arguments[0]?arguments[0]:1,n=arguments.length>1&&void 0!==arguments[1]?arguments[1]:0,e=arguments.length>2&&void 0!==arguments[2]?arguments[2]:0,r=arguments.length>3&&void 0!==arguments[3]?arguments[3]:1,i=arguments.length>4&&void 0!==arguments[4]?arguments[4]:0,u=arguments.length>5&&void 0!==arguments[5]?arguments[5]:0,o=this.m;return o[0]=t,o[1]=n,o[2]=e,o[3]=r,o[4]=i,o[5]=u,this.w=this.s=this.i=null,this}},{key:"recomposeSelf",value:function(){var t=arguments.length>0&&void 0!==arguments[0]?arguments[0]:null,n=arguments.length>1&&void 0!==arguments[1]?arguments[1]:null,e=arguments.length>2&&void 0!==arguments[2]?arguments[2]:null,r=arguments.length>3&&void 0!==arguments[3]?arguments[3]:null,i=arguments.length>4&&void 0!==arguments[4]?arguments[4]:null;return this.isIdentity||this.resetSelf(),t&&(t.x||t.y)&&this.translateSelf(t.x,t.y),n&&this.rotateSelf(n),e&&(e.x&&this.skewSelf(e.x,0),e.y&&this.skewSelf(0,e.y)),!r||1===r.x&&1===r.y||this.scaleSelf(r.x,r.y),i&&(i.x||i.y)&&this.translateSelf(i.x,i.y),this}},{key:"decompose",value:function(){var t=arguments.length>0&&void 0!==arguments[0]?arguments[0]:0,n=arguments.length>1&&void 0!==arguments[1]?arguments[1]:0,e=this.m,r=e[0]*e[0]+e[1]*e[1],i=[[e[0],e[1]],[e[2],e[3]]],u=F(r);if(0===u)return{origin:{x:d(e[4]),y:d(e[5])},translate:{x:d(t),y:d(n)},scale:{x:0,y:0},skew:{x:0,y:0},rotate:0};i[0][0]/=u,i[0][1]/=u;var o=e[0]*e[3]-e[1]*e[2]<0;o&&(u=-u);var a=i[0][0]*i[1][0]+i[0][1]*i[1][1];i[1][0]-=i[0][0]*a,i[1][1]-=i[0][1]*a;var l=F(i[1][0]*i[1][0]+i[1][1]*i[1][1]);if(0===l)return{origin:{x:d(e[4]),y:d(e[5])},translate:{x:d(t),y:d(n)},scale:{x:d(u),y:0},skew:{x:0,y:0},rotate:0};i[1][0]/=l,i[1][1]/=l,a/=l;var s=0;return i[1][1]<0?(s=j(i[1][1])*R,i[0][1]<0&&(s=360-s)):s=E(i[0][1])*R,o&&(s=-s),a=P(a,F(i[0][0]*i[0][0]+i[0][1]*i[0][1]))*R,o&&(a=-a),{origin:{x:d(e[4]),y:d(e[5])},translate:{x:d(t),y:d(n)},scale:{x:d(u),y:d(l)},skew:{x:d(a),y:0},rotate:d(s)}}},{key:"clone",value:function(){var t=this.m;return new this.constructor(t[0],t[1],t[2],t[3],t[4],t[5])}},{key:"toString",value:function(){var t=arguments.length>0&&void 0!==arguments[0]?arguments[0]:" ";if(null===this.s){var n=this.m.map((function(t){return d(t)}));1===n[0]&&0===n[1]&&0===n[2]&&1===n[3]?this.s="translate("+n[4]+t+n[5]+")":this.s="matrix("+n.join(t)+")"}return this.s}}],[{key:"create",value:function(t){return t?Array.isArray(t)?f(this,v(t)):t instanceof this?t.clone():(new this).recomposeSelf(t.origin,t.rotate,t.skew,t.scale,t.translate):new this}}]),t}();function T(t,n,e){return t>=.5?e:n}function B(t,n,e){return 0===t||n===e?n:t*(e-n)+n}function q(t,n,e){var r=B(t,n,e);return r<=0?0:r}function D(t,n,e){var r=B(t,n,e);return r<=0?0:r>=1?1:r}function L(t,n,e){return 0===t?n:1===t?e:{x:B(t,n.x,e.x),y:B(t,n.y,e.y)}}function C(t,n,e){var r=function(t,n,e){return Math.round(B(t,n,e))}(t,n,e);return r<=0?0:r>=255?255:r}function V(t,n,e){return 0===t?n:1===t?e:{r:C(t,n.r,e.r),g:C(t,n.g,e.g),b:C(t,n.b,e.b),a:B(t,null==n.a?1:n.a,null==e.a?1:e.a)}}function G(t,n){for(var e=[],r=0;r<t;r++)e.push(n);return e}function z(t,n){if(--n<=0)return t;var e=(t=Object.assign([],t)).length;do{for(var r=0;r<e;r++)t.push(t[r])}while(--n>0);return t}var Y,$=function(){function t(n){r(this,t),this.list=n,this.length=n.length}return u(t,[{key:"setAttribute",value:function(t,n){for(var e=this.list,r=0;r<this.length;r++)e[r].setAttribute(t,n)}},{key:"removeAttribute",value:function(t){for(var n=this.list,e=0;e<this.length;e++)n[e].removeAttribute(t)}},{key:"style",value:function(t,n){for(var e=this.list,r=0;r<this.length;r++)e[r].style[t]=n}}]),t}(),U=/-./g,Q=function(t,n){return n.toUpperCase()};function H(t){return"function"==typeof t?t:T}function J(t){return t?"function"==typeof t?t:Array.isArray(t)?function(t){var n=arguments.length>1&&void 0!==arguments[1]?arguments[1]:b;if(!Array.isArray(t))return n;switch(t.length){case 1:return k(t[0])||n;case 2:return k(t[0],t[1])||n;case 4:return A(t[0],t[1],t[2],t[3])||n}return n}(t,null):function(t,n){var e=arguments.length>2&&void 0!==arguments[2]?arguments[2]:b;switch(t){case"linear":return b;case"steps":return k(n.steps||1,n.jump||0)||e;case"bezier":case"cubic-bezier":return A(n.x1||0,n.y1||0,n.x2||0,n.y2||0)||e}return e}(t.type,t.value,null):null}function Z(t,n,e){var r=arguments.length>3&&void 0!==arguments[3]&&arguments[3],i=n.length-1;if(t<=n[0].t)return r?[0,0,n[0].v]:n[0].v;if(t>=n[i].t)return r?[i,1,n[i].v]:n[i].v;var u,o=n[0],a=null;for(u=1;u<=i;u++){if(!(t>n[u].t)){a=n[u];break}o=n[u]}return null==a?r?[i,1,n[i].v]:n[i].v:o.t===a.t?r?[u,1,a.v]:a.v:(t=(t-o.t)/(a.t-o.t),o.e&&(t=o.e(t)),r?[u,t,e(t,o.v,a.v)]:e(t,o.v,a.v))}function K(t,n){var e=arguments.length>2&&void 0!==arguments[2]?arguments[2]:null;return t&&t.length?"function"!=typeof n?null:("function"!=typeof e&&(e=null),function(r){var i=Z(r,t,n);return null!=i&&e&&(i=e(i)),i}):null}function W(t,n){return t.t-n.t}function X(t,n,r,i,u){var o,a="@"===r[0],l="#"===r[0],s=Y[r],f=T;switch(a?(o=r.substr(1),r=o.replace(U,Q)):l&&(r=r.substr(1)),e(s)){case"function":if(f=s(i,u,Z,J,r,a,n,t),l)return f;break;case"string":f=K(i,H(s));break;case"object":if((f=K(i,H(s.i),s.f))&&"function"==typeof s.u)return s.u(n,f,r,a,t)}return f?function(t,n,e){if(arguments.length>3&&void 0!==arguments[3]&&arguments[3])return t instanceof $?function(r){return t.style(n,e(r))}:function(r){return t.style[n]=e(r)};if(Array.isArray(n)){var r=n.length;return function(i){var u=e(i);if(null==u)for(var o=0;o<r;o++)t[o].removeAttribute(n);else for(var a=0;a<r;a++)t[a].setAttribute(n,u)}}return function(r){var i=e(r);null==i?t.removeAttribute(n):t.setAttribute(n,i)}}(n,r,f,a):null}function tt(t,n,r,i){if(!i||"object"!==e(i))return null;var u=null,o=null;return Array.isArray(i)?o=function(t){if(!t||!t.length)return null;for(var n=0;n<t.length;n++)t[n].e&&(t[n].e=J(t[n].e));return t.sort(W)}(i):(o=i.keys,u=i.data||null),o?X(t,n,r,o,u):null}function nt(t,n,e){if(!e)return null;var r=[];for(var i in e)if(e.hasOwnProperty(i)){var u=tt(t,n,i,e[i]);u&&r.push(u)}return r.length?r:null}function et(t,n){if(!n.settings.duration||n.settings.duration<0)return null;var e,r,i,u,o,a=function(t,n){if(!n)return null;var e=[];if(Array.isArray(n))for(var r=n.length,i=0;i<r;i++){var u=n[i];if(2===u.length){var o=null;if("string"==typeof u[0])o=t.getElementById(u[0]);else if(Array.isArray(u[0])){o=[];for(var a=0;a<u[0].length;a++)if("string"==typeof u[0][a]){var l=t.getElementById(u[0][a]);l&&o.push(l)}o=o.length?1===o.length?o[0]:new $(o):null}if(o){var s=nt(t,o,u[1]);s&&(e=e.concat(s))}}}else for(var f in n)if(n.hasOwnProperty(f)){var c=t.getElementById(f);if(c){var h=nt(t,c,n[f]);h&&(e=e.concat(h))}}return e.length?e:null}(t,n.elements);return a?(e=a,r=n.settings,i=r.duration,u=e.length,o=null,function(t,n){var a=r.iterations||1/0,l=(r.alternate&&a%2==0)^r.direction>0?i:0,s=t%i,f=1+(t-s)/i;n*=r.direction,r.alternate&&f%2==0&&(n=-n);var c=!1;if(f>a)s=l,c=!0,-1===r.fill&&(s=r.direction>0?0:i);else if(n<0&&(s=i-s),s===o)return!1;o=s;for(var h=0;h<u;h++)e[h](s);return c}):null}function rt(t,n){if(Y=n,!t||!t.root||!Array.isArray(t.animations))return null;var e=function(t){for(var n=document.getElementsByTagName("svg"),e=0;e<n.length;e++)if(n[e].id===t.root&&!n[e].svgatorAnimation)return n[e].svgatorAnimation=!0,n[e];return null}(t);if(!e)return null;var r=t.animations.map((function(t){return et(e,t)})).filter((function(t){return!!t}));return r.length?{svg:e,animations:r,animationSettings:t.animationSettings,options:t.options||void 0}:null}function it(t){var n=arguments.length>1&&void 0!==arguments[1]?arguments[1]:null,e=arguments.length>2&&void 0!==arguments[2]?arguments[2]:Number,r=arguments.length>3&&void 0!==arguments[3]?arguments[3]:"undefined"!=typeof BigInt&&BigInt,i="0x"+(t.replace(/[^0-9a-fA-F]+/g,"")||27);return n&&r&&e.isSafeInteger&&!e.isSafeInteger(+i)?e(r(i))%n+n:+i}function ut(t,n,e){return!t||!e||n>t.length?t:t.substring(0,n)+ut(t.substring(n+1),e,e)}function ot(t){var n=arguments.length>1&&void 0!==arguments[1]?arguments[1]:27;return!t||t%n?t%n:[0,1].includes(n)?n:ot(t/n,n)}function at(t,n,e){if(t&&t.length){var r=it(e),i=ot(r)+5,u=ut(t,ot(r,5),i);return u=u.replace(/\x7c$/g,"==").replace(/\x2f$/g,"="),u=function(t,n,e){var r=+("0x"+t.substring(0,4));t=t.substring(4);for(var i=it(n,r)%r+e%27,u=[],o=0;o<t.length;o+=2)if("|"!==t[o]){var a=+("0x"+t[o]+t[o+1])-i;u.push(a)}else{var l=+("0x"+t.substring(o+1,o+1+4))-i;o+=3,u.push(l)}return String.fromCharCode.apply(String,u)}(u=(u=atob(u)).replace(/[\x41-\x5A]/g,""),n,r),u=JSON.parse(u)}}var lt=[{key:"alternate",def:!1},{key:"fill",def:1},{key:"iterations",def:0},{key:"direction",def:1},{key:"speed",def:1},{key:"fps",def:100}],st=function(){function t(n,e){var i=this,u=arguments.length>2&&void 0!==arguments[2]?arguments[2]:null;r(this,t),this._id=0,this._running=!1,this._rollingBack=!1,this._animations=n,this._settings=e,(!u||u<"2022-05-02")&&delete this._settings.speed,lt.forEach((function(t){i._settings[t.key]=i._settings[t.key]||t.def})),this.duration=e.duration,this.offset=e.offset||0,this.rollbackStartOffset=0}return u(t,[{key:"alternate",get:function(){return this._settings.alternate}},{key:"fill",get:function(){return this._settings.fill}},{key:"iterations",get:function(){return this._settings.iterations}},{key:"direction",get:function(){return this._settings.direction}},{key:"speed",get:function(){return this._settings.speed}},{key:"fps",get:function(){return this._settings.fps}},{key:"maxFiniteDuration",get:function(){return this.iterations>0?this.iterations*this.duration:this.duration}},{key:"_apply",value:function(t){for(var n=arguments.length>1&&void 0!==arguments[1]?arguments[1]:{},e=this._animations,r=e.length,i=0,u=0;u<r;u++)n[u]?i++:(n[u]=e[u](t,1),n[u]&&i++);return i}},{key:"_rollback",value:function(t){var n=this,e=1/0,r=null;this.rollbackStartOffset=t,this._rollingBack=!0,this._running=!0;this._id=window.requestAnimationFrame((function i(u){if(n._rollingBack){null==r&&(r=u);var o=Math.round(t-(u-r)*n.speed);if(o>n.duration&&e!==1/0){var a=!!n.alternate&&o/n.duration%2>1,l=o%n.duration;o=(l+=a?n.duration:0)||n.duration}var s=(n.fps?1e3/n.fps:0)*n.speed,f=Math.max(0,o);f<=e-s&&(n.offset=f,e=f,n._apply(f));var c=n.iterations>0&&-1===n.fill&&o>=n.maxFiniteDuration;(o<=0||n.offset<o||c)&&n.stop(),n._id=window.requestAnimationFrame(i)}}))}},{key:"_start",value:function(){var t=this,n=arguments.length>0&&void 0!==arguments[0]?arguments[0]:0,e=-1/0,r=null,i={};this._running=!0;var u=function u(o){null==r&&(r=o);var a=Math.round((o-r)*t.speed+n),l=(t.fps?1e3/t.fps:0)*t.speed;if(a>=e+l&&!t._rollingBack&&(t.offset=a,e=a,t._apply(a,i)===t._animations.length))return void t.pause(!0);t._id=window.requestAnimationFrame(u)};this._id=window.requestAnimationFrame(u)}},{key:"_pause",value:function(){this._id&&window.cancelAnimationFrame(this._id),this._running=!1}},{key:"play",value:function(){if(!this._running)return this._rollingBack?this._rollback(this.offset):this._start(this.offset)}},{key:"stop",value:function(){this._pause(),this.offset=0,this.rollbackStartOffset=0,this._rollingBack=!1,this._apply(0)}},{key:"reachedToEnd",value:function(){return this.iterations>0&&this.offset>=this.iterations*this.duration}},{key:"restart",value:function(){var t=arguments.length>0&&void 0!==arguments[0]&&arguments[0];this.stop(t),this.play(t)}},{key:"pause",value:function(){this._pause()}},{key:"reverse",value:function(){this.direction=-this.direction}}],[{key:"build",value:function(t,n){delete t.animationSettings,t.options=at(t.options,t.root,"5c7f360c"),t.animations.map((function(n){n.settings=at(n.s,t.root,"5c7f360c"),delete n.s,t.animationSettings||(t.animationSettings=n.settings)}));var e=t.version;if(!(t=rt(t,n)))return null;var r=t.options||{},i=new this(t.animations,t.animationSettings,e);return{el:t.svg,options:r,player:i}}},{key:"push",value:function(t){return this.build(t)}},{key:"init",value:function(){var t=this,n=window.__SVGATOR_PLAYER__&&window.__SVGATOR_PLAYER__["5c7f360c"];Array.isArray(n)&&n.splice(0).forEach((function(n){return t.build(n)}))}}]),t}();function ft(t){return d(t)+""}function ct(t){var n=arguments.length>1&&void 0!==arguments[1]?arguments[1]:" ";return t&&t.length?t.map(ft).join(n):""}function ht(t){if(!t)return"transparent";if(null==t.a||t.a>=1){var n=function(t){return 1===(t=parseInt(t).toString(16)).length?"0"+t:t},e=function(t){return t.charAt(0)===t.charAt(1)},r=n(t.r),i=n(t.g),u=n(t.b);return e(r)&&e(i)&&e(u)&&(r=r.charAt(0),i=i.charAt(0),u=u.charAt(0)),"#"+r+i+u}return"rgba("+t.r+","+t.g+","+t.b+","+t.a+")"}function vt(t){return t?"url(#"+t+")":"none"}!function(){for(var t=0,n=["ms","moz","webkit","o"],e=0;e<n.length&&!window.requestAnimationFrame;++e)window.requestAnimationFrame=window[n[e]+"RequestAnimationFrame"],window.cancelAnimationFrame=window[n[e]+"CancelAnimationFrame"]||window[n[e]+"CancelRequestAnimationFrame"];window.requestAnimationFrame||(window.requestAnimationFrame=function(n){var e=Date.now(),r=Math.max(0,16-(e-t)),i=window.setTimeout((function(){n(e+r)}),r);return t=e+r,i},window.cancelAnimationFrame=window.clearTimeout)}();var yt={f:null,i:function(t,n,e){return 0===t?n:1===t?e:{x:q(t,n.x,e.x),y:q(t,n.y,e.y)}},u:function(t,n){return function(e){var r=n(e);t.setAttribute("rx",ft(r.x)),t.setAttribute("ry",ft(r.y))}}},gt={f:null,i:function(t,n,e){return 0===t?n:1===t?e:{width:q(t,n.width,e.width),height:q(t,n.height,e.height)}},u:function(t,n){return function(e){var r=n(e);t.setAttribute("width",ft(r.width)),t.setAttribute("height",ft(r.height))}}};Object.freeze({M:2,L:2,Z:0,H:1,V:1,C:6,Q:4,T:2,S:4,A:7});var dt={},pt=null;function mt(t){var n=function(){if(pt)return pt;if("object"!==("undefined"==typeof document?"undefined":e(document))||!document.createElementNS)return{};var t=document.createElementNS("http://www.w3.org/2000/svg","svg");return t&&t.style?(t.style.position="absolute",t.style.opacity="0.01",t.style.zIndex="-9999",t.style.left="-9999px",t.style.width="1px",t.style.height="1px",pt={svg:t}):{}}().svg;if(!n)return function(t){return null};var r=document.createElementNS(n.namespaceURI,"path");r.setAttributeNS(null,"d",t),r.setAttributeNS(null,"fill","none"),r.setAttributeNS(null,"stroke","none"),n.appendChild(r);var i=r.getTotalLength();return function(t){var n=r.getPointAtLength(i*t);return{x:n.x,y:n.y}}}function bt(t){return dt[t]?dt[t]:dt[t]=mt(t)}function wt(t,n,e,r){if(!t||!r)return!1;var i=["M",t.x,t.y];if(n&&e&&(i.push("C"),i.push(n.x),i.push(n.y),i.push(e.x),i.push(e.y)),n?!e:e){var u=n||e;i.push("Q"),i.push(u.x),i.push(u.y)}return n||e||i.push("L"),i.push(r.x),i.push(r.y),i.join(" ")}function At(t,n,e,r){var i=arguments.length>4&&void 0!==arguments[4]?arguments[4]:1,u=wt(t,n,e,r),o=bt(u);try{return o(i)}catch(t){return null}}function _t(t,n,e){return t+(n-t)*e}function xt(t,n,e){var r=arguments.length>3&&void 0!==arguments[3]&&arguments[3],i={x:_t(t.x,n.x,e),y:_t(t.y,n.y,e)};return r&&(i.a=kt(t,n)),i}function kt(t,n){return Math.atan2(n.y-t.y,n.x-t.x)}function St(t,n,e,r){var i=1-r;return i*i*t+2*i*r*n+r*r*e}function Ot(t,n,e,r){return 2*(1-r)*(n-t)+2*r*(e-n)}function jt(t,n,e,r){var i=arguments.length>4&&void 0!==arguments[4]&&arguments[4],u=At(t,n,null,e,r);return u||(u={x:St(t.x,n.x,e.x,r),y:St(t.y,n.y,e.y,r)}),i&&(u.a=Et(t,n,e,r)),u}function Et(t,n,e,r){return Math.atan2(Ot(t.y,n.y,e.y,r),Ot(t.x,n.x,e.x,r))}function Mt(t,n,e,r,i){var u=i*i;return i*u*(r-t+3*(n-e))+3*u*(t+e-2*n)+3*i*(n-t)+t}function Pt(t,n,e,r,i){var u=1-i;return 3*(u*u*(n-t)+2*u*i*(e-n)+i*i*(r-e))}function It(t,n,e,r,i){var u=arguments.length>5&&void 0!==arguments[5]&&arguments[5],o=At(t,n,e,r,i);return o||(o={x:Mt(t.x,n.x,e.x,r.x,i),y:Mt(t.y,n.y,e.y,r.y,i)}),u&&(o.a=Rt(t,n,e,r,i)),o}function Rt(t,n,e,r,i){return Math.atan2(Pt(t.y,n.y,e.y,r.y,i),Pt(t.x,n.x,e.x,r.x,i))}function Ft(t,n,e){var r=arguments.length>3&&void 0!==arguments[3]&&arguments[3];if(Tt(n)){if(Bt(e))return jt(n,e.start,e,t,r)}else if(Tt(e)){if(qt(n))return jt(n,n.end,e,t,r)}else{if(qt(n))return Bt(e)?It(n,n.end,e.start,e,t,r):jt(n,n.end,e,t,r);if(Bt(e))return jt(n,e.start,e,t,r)}return xt(n,e,t,r)}function Nt(t,n,e){var r=Ft(t,n,e,!0);return r.a=function(t){return arguments.length>1&&void 0!==arguments[1]&&arguments[1]?t+Math.PI:t}(r.a)/m,r}function Tt(t){return!t.type||"corner"===t.type}function Bt(t){return null!=t.start&&!Tt(t)}function qt(t){return null!=t.end&&!Tt(t)}var Dt=new N;var Lt={f:ft,i:B},Ct={f:ft,i:D};function Vt(t,n,e){return t.map((function(t){return function(t,n,e){var r=t.v;if(!r||"g"!==r.t||r.s||!r.v||!r.r)return t;var i=e.getElementById(r.r),u=i&&i.querySelectorAll("stop")||[];return r.s=r.v.map((function(t,n){var e=u[n]&&u[n].getAttribute("offset");return{c:t,o:e=d(parseInt(e)/100)}})),delete r.v,t}(t,0,e)}))}var Gt={gt:"gradientTransform",c:{x:"cx",y:"cy"},rd:"r",f:{x:"x1",y:"y1"},to:{x:"x2",y:"y2"}};function zt(t,n,r,i,u,o,a,l){return Vt(t,0,l),n=function(t,n,e){for(var r,i,u,o=t.length-1,a={},l=0;l<=o;l++)(r=t[l]).e&&(r.e=n(r.e)),r.v&&"g"===(i=r.v).t&&i.r&&(u=e.getElementById(i.r))&&(a[i.r]={e:u,s:u.querySelectorAll("stop")});return a}(t,i,l),function(i){var u=r(i,t,Yt);if(!u)return"none";if("c"===u.t)return ht(u.v);if("g"===u.t){if(!n[u.r])return vt(u.r);var o=n[u.r];return function(t,n){for(var e=t.s,r=e.length;r<n.length;r++){var i=e[e.length-1].cloneNode();i.id=Qt(i.id),t.e.appendChild(i),e=t.s=t.e.querySelectorAll("stop")}for(var u=0,o=e.length,a=n.length-1;u<o;u++)e[u].setAttribute("stop-color",ht(n[Math.min(u,a)].c)),e[u].setAttribute("offset",n[Math.min(u,a)].o)}(o,u.s),Object.keys(Gt).forEach((function(t){if(void 0!==u[t])if("object"!==e(Gt[t])){var n,r="gt"===t?(n=u[t],Array.isArray(n)?"matrix("+n.join(" ")+")":""):u[t],i=Gt[t];o.e.setAttribute(i,r)}else Object.keys(Gt[t]).forEach((function(n){if(void 0!==u[t][n]){var e=u[t][n],r=Gt[t][n];o.e.setAttribute(r,e)}}))})),vt(u.r)}return"none"}}function Yt(t,e,r){if(0===t)return e;if(1===t)return r;if(e&&r){var i=e.t;if(i===r.t)switch(e.t){case"c":return{t:i,v:V(t,e.v,r.v)};case"g":if(e.r===r.r){var u={t:i,s:$t(t,e.s,r.s),r:e.r};return e.gt&&r.gt&&(u.gt=function(t,n,e){var r=n.length;if(r!==e.length)return T(t,n,e);for(var i=new Array(r),u=0;u<r;u++)i[u]=B(t,n[u],e[u]);return i}(t,e.gt,r.gt)),e.c?(u.c=L(t,e.c,r.c),u.rd=q(t,e.rd,r.rd)):e.f&&(u.f=L(t,e.f,r.f),u.to=L(t,e.to,r.to)),u}}if("c"===e.t&&"g"===r.t||"c"===r.t&&"g"===e.t){var o="c"===e.t?e:r,a="g"===e.t?n({},e):n({},r),l=a.s.map((function(t){return{c:o.v,o:t.o}}));return a.s="c"===e.t?$t(t,l,a.s):$t(t,a.s,l),a}}return T(t,e,r)}function $t(t,n,e){if(n.length===e.length)return n.map((function(n,r){return Ut(t,n,e[r])}));for(var r=Math.max(n.length,e.length),i=[],u=0;u<r;u++){var o=Ut(t,n[Math.min(u,n.length-1)],e[Math.min(u,e.length-1)]);i.push(o)}return i}function Ut(t,n,e){return{o:D(t,n.o,e.o||0),c:V(t,n.c,e.c||{})}}function Qt(t){return t.replace(/-fill-([0-9]+)$/,(function(t,n){return"-fill-"+(+n+1)}))}var Ht={fill:zt,"fill-opacity":Ct,stroke:zt,"stroke-opacity":Ct,"stroke-width":Lt,"stroke-dashoffset":{f:ft,i:B},"stroke-dasharray":{f:function(t){var n=arguments.length>1&&void 0!==arguments[1]?arguments[1]:" ";return t&&t.length>0&&(t=t.map((function(t){return d(t,4)}))),ct(t,n)},i:function(t,n,e){var r,i,u,o=n.length,a=e.length;if(o!==a)if(0===o)n=G(o=a,0);else if(0===a)a=o,e=G(o,0);else{var l=(u=(r=o)*(i=a)/function(t,n){for(var e;n;)e=n,n=t%n,t=e;return t||1}(r,i))<0?-u:u;n=z(n,Math.floor(l/o)),e=z(e,Math.floor(l/a)),o=a=l}for(var s=[],f=0;f<o;f++)s.push(d(q(t,n[f],e[f])));return s}},opacity:Ct,transform:function(t,n,r,i){if(!(t=function(t,n){if(!t||"object"!==e(t))return null;var r=!1;for(var i in t)t.hasOwnProperty(i)&&(t[i]&&t[i].length?(t[i].forEach((function(t){t.e&&(t.e=n(t.e))})),r=!0):delete t[i]);return r?t:null}(t,i)))return null;var u=function(e,i,u){var o=arguments.length>3&&void 0!==arguments[3]?arguments[3]:null;return t[e]?r(i,t[e],u):n&&n[e]?n[e]:o};return n&&n.a&&t.o?function(n){var e=r(n,t.o,Nt);return Dt.recomposeSelf(e,u("r",n,B,0)+e.a,u("k",n,L),u("s",n,L),u("t",n,L)).toString()}:function(t){return Dt.recomposeSelf(u("o",t,Ft,null),u("r",t,B,0),u("k",t,L),u("s",t,L),u("t",t,L)).toString()}},r:Lt,"#size":gt,"#radius":yt,_:function(t,n){if(Array.isArray(t))for(var e=0;e<t.length;e++)this[t[e]]=n;else this[t]=n}},Jt=function(t){!function(t,n){if("function"!=typeof n&&null!==n)throw new TypeError("Super expression must either be null or a function");t.prototype=Object.create(n&&n.prototype,{constructor:{value:t,writable:!0,configurable:!0}}),n&&l(t,n)}(o,t);var n,e,i=(n=o,e=s(),function(){var t,r=a(n);if(e){var i=a(this).constructor;t=Reflect.construct(r,arguments,i)}else t=r.apply(this,arguments);return c(this,t)});function o(){return r(this,o),i.apply(this,arguments)}return u(o,null,[{key:"build",value:function(t){var n=h(a(o),"build",this).call(this,t,Ht);if(!n)return null;n.el,n.options,function(t,n,e){t.play()}(n.player)}}]),o}(st);return Jt.init(),Jt}));
(function(s,i,o,w,d,a,b){w[o]=w[o]||{};w[o][s]=w[o][s]||[];w[o][s].push(i);})('5c7f360c',{"root":"e9BEh4A820i1","version":"2022-05-04","animations":[{"elements":{"e9BEh4A820i2":{"transform":{"data":{"o":{"x":94.499998,"y":78.49985,"type":"corner"},"t":{"x":-94.499998,"y":-78.499849}},"keys":{"s":[{"t":0,"v":{"x":1,"y":1}},{"t":1500,"v":{"x":0.95,"y":0.95}},{"t":3000,"v":{"x":1,"y":1}}]}}}},"s":"MQDA1ZGI1NWM5ZVBhZmVFjSDliYWVhM2E5YTgG1Yzc0NmQ2YTZhNmFQENjY1YzllYTNWYWM5ZVjlkYWVWYTNhOWE4NWMM3NDZiSzY2NWNhM2FAlOWZhYzliYWVhM2E5SYThhZDVjTVI3NDZiNNjY1Y2EwYTNhNmE2NWYM3NDZiNjY1YzliYTZXhZTlmYWNhODliWGFlMTjlmNWM3NFJhMDliUNmE2YWQ5ZjY2NWNhZGDFhOWY5ZjllNWM3NEYV2YjY2NWNhMGFhYWQ1IYzc0NmI2YTZhYjc/"}],"options":"MWDAxMDg4MmY4MDgxNmFU3ZjgxMmY0NzJmNzkG3YzZlNzEyZjhh"},'__SVGATOR_PLAYER__',window,document)
]]></script>
</svg>
