<svg width="534" height="136" viewBox="0 0 534 136" fill="none" xmlns="http://www.w3.org/2000/svg">
<path fill-rule="evenodd" clip-rule="evenodd" d="M17.9886 16.3106H39.2792C50.0495 6.1432 64.0464 0 79.3511 0C94.6558 0 108.653 6.1432 119.423 16.3106H141.87V17.4676C141.87 21.7959 143.624 25.7151 146.461 28.5516C149.297 31.3873 153.216 33.1424 157.545 33.1424H158.702V38.3339V44.8954V66.5293H156.388V44.8954V38.3339V35.4191C151.882 35.1333 147.826 33.1876 144.825 30.1874C141.824 27.1869 139.879 23.1307 139.593 18.6244H19.1085C18.8225 23.1307 16.8771 27.1869 13.8766 30.1874C10.8763 33.1876 6.81987 35.1333 2.3133 35.4191V37.7325V44.8954V66.5293H0V44.8954V37.7325V33.1424H1.15679C5.48559 33.1424 9.40482 31.3873 12.2408 28.5516C15.0767 25.7156 16.8318 21.7959 16.8318 17.4676V16.3106H17.9886ZM42.7178 16.3106H115.984C105.902 7.54478 93.1782 2.3134 79.3511 2.3134C65.524 2.3134 52.8005 7.54478 42.7178 16.3106V16.3106ZM119.423 119.19C108.653 129.357 94.656 135.5 79.3511 135.5C64.0463 135.5 50.0494 129.357 39.279 119.19H16.8318V118.033C16.8318 113.704 15.0767 109.785 12.2408 106.949C9.40425 104.112 5.48559 102.358 1.15679 102.358H0V100.082V97.2132H2.3133V100.082C6.81987 100.367 10.8763 102.313 13.8766 105.313C16.8771 108.314 18.8225 112.37 19.1085 116.876H139.593C139.879 112.37 141.824 108.314 144.825 105.313C147.826 102.313 151.882 100.367 156.388 100.082V97.2132H158.702V100.082V102.358H157.545C153.216 102.358 149.297 104.112 146.461 106.949C143.624 109.785 141.87 113.704 141.87 118.033V119.19H119.423ZM42.7176 119.19C52.8003 127.956 65.5239 133.187 79.3511 133.187C93.1783 133.187 105.902 127.956 115.985 119.19H42.7176Z" fill="#4E4138"/>
<path fill-rule="evenodd" clip-rule="evenodd" d="M8.73193 93.2715C7.45903 93.2715 6.2845 93.0375 5.20825 92.5695C4.13195 92.1016 3.21015 91.4323 2.44265 90.562C1.6752 89.6916 1.0763 88.634 0.645796 87.3893C0.215201 86.1446 0 84.7361 0 83.1637C0 81.5166 0.238625 80.0613 0.716018 78.7978C1.19322 77.5343 1.84838 76.4721 2.68128 75.6111C3.51436 74.7501 4.48291 74.0996 5.58722 73.6598C6.69167 73.2199 7.87079 73 9.125 73C10.4164 73 11.4414 73.2106 12.1993 73.6363C12.9575 74.0622 13.4581 74.4974 13.7015 74.9372H13.8699V73.3369H17.1268V79.57H13.8699V78.3251C13.8699 77.3471 13.5705 76.5657 12.9714 75.9807C12.3725 75.3958 11.3992 75.1057 10.0515 75.1057C8.34818 75.1057 7.08 75.5409 6.24711 76.4159C5.41417 77.2864 4.99768 78.6387 4.99768 80.4777V85.8497C4.99768 87.5577 5.36728 88.8447 6.10672 89.715C6.84602 90.5901 7.88962 91.0253 9.23733 91.0253C10.5475 91.0253 11.5115 90.6931 12.1292 90.0238C12.7469 89.3547 13.0557 88.5264 13.0557 87.5297V84.8764H10.248V83.0233H18.9799V84.8764H17.5479V92.9345H16.0038L14.2911 90.1222H14.0946C14.001 90.4403 13.8045 90.7819 13.5049 91.147C13.2054 91.5119 12.8171 91.8534 12.3397 92.1624C11.8625 92.4712 11.3197 92.7333 10.7113 92.9486C10.103 93.1637 9.44317 93.2715 8.73193 93.2715V93.2715ZM21.4507 91.0814H23.416V75.1899H21.4507V73.3369H29.9299V75.1899H27.9645V91.0814H29.9299V92.9345H21.4507V91.0814ZM32.2322 91.0814H34.1975V75.1899H32.2322V73.3369H39.8129L47.8429 87.291H48.0113V75.1899H46.0459V73.3369H52.1387V75.1899H50.2013V92.9345H46.1021L36.556 76.6219H36.3876V91.0814H38.3529V92.9345H32.2322V91.0814ZM54.441 91.0814H56.4062V75.1899H54.441V73.3369H62.9201V75.1899H60.9547V91.0814H62.9201V92.9345H54.441V91.0814ZM69.2373 91.0814H71.4554V85.1011L66.177 75.1899H64.7731V73.3369H73.0278V75.1899H71.0623L74.8246 82.5461H74.9369L78.8396 75.1899H76.8742V73.3369H82.6862V75.1899H81.2542L76.0039 84.4833V91.0814H78.2219V92.9345H69.2373V91.0814ZM82.2368 91.0814H83.6406L89.7334 73.3369H93.608L99.7007 91.0814H101.104V92.9345H92.878V91.0814H95.1241L93.7764 86.954H87.3749L86.0272 91.0814H88.2734V92.9345H82.2368V91.0814ZM87.9364 85.0168H93.271L90.6318 76.7623H90.5196L87.9364 85.0168ZM104.811 91.0814H107.478V75.3584H103.828V78.5592H100.571V73.3369H118.933V78.5592H115.676V75.3584H112.026V91.0814H114.694V92.9345H104.811V91.0814ZM129.743 91.1657C130.323 91.1657 130.866 91.072 131.371 90.8849C131.877 90.6977 132.321 90.4123 132.705 90.0192C133.089 89.6261 133.393 89.1254 133.618 88.5077C133.842 87.8899 133.954 87.1553 133.954 86.2991V79.9724C133.954 79.116 133.842 78.3814 133.618 77.7637C133.393 77.1459 133.089 76.6452 132.705 76.2521C132.321 75.8591 131.877 75.5737 131.371 75.3864C130.866 75.1993 130.323 75.1057 129.743 75.1057C129.163 75.1057 128.62 75.1993 128.114 75.3864C127.609 75.5737 127.165 75.8591 126.781 76.2521C126.397 76.6452 126.093 77.1459 125.868 77.7637C125.644 78.3814 125.531 79.116 125.531 79.9724V86.2991C125.531 87.1553 125.644 87.8899 125.868 88.5077C126.093 89.1254 126.397 89.6261 126.781 90.0192C127.165 90.4123 127.609 90.6977 128.114 90.8849C128.62 91.072 129.163 91.1657 129.743 91.1657ZM129.743 93.2715C128.433 93.2715 127.216 93.0468 126.093 92.5975C124.97 92.1483 123.997 91.4979 123.173 90.6462C122.349 89.7945 121.704 88.737 121.236 87.4735C120.768 86.21 120.534 84.7641 120.534 83.1357C120.534 81.5072 120.768 80.0613 121.236 78.7978C121.704 77.5343 122.349 76.4768 123.173 75.6252C123.997 74.7734 124.97 74.123 126.093 73.6739C127.216 73.2245 128.433 73 129.743 73C131.053 73 132.27 73.2245 133.393 73.6739C134.516 74.123 135.489 74.7734 136.313 75.6252C137.136 76.4768 137.782 77.5343 138.25 78.7978C138.718 80.0613 138.952 81.5072 138.952 83.1357C138.952 84.7641 138.718 86.21 138.25 87.4735C137.782 88.737 137.136 89.7945 136.313 90.6462C135.489 91.4979 134.516 92.1483 133.393 92.5975C132.27 93.0468 131.053 93.2715 129.743 93.2715ZM141.507 75.1899H140.103V73.3369H148.358V75.1899H146.112L148.667 83.5007L150.323 89.5092H150.492L152.261 83.5007L154.9 75.1899H152.654V73.3369H158.69V75.1899H157.286L151.334 92.9345H147.459L141.507 75.1899Z" fill="#4E4138"/>
<path fill-rule="evenodd" clip-rule="evenodd" d="M76.1674 1.24857C76.9255 1.20527 77.6887 1.1817 78.4541 1.16946L77.1873 17.4674L76.1674 1.24857Z" fill="#4E4138"/>
<path fill-rule="evenodd" clip-rule="evenodd" d="M45.0083 12.9596C45.3453 12.7026 45.685 12.4486 46.0273 12.1986L45.4253 17.4674L45.0083 12.9596Z" fill="#4E4138"/>
<path fill-rule="evenodd" clip-rule="evenodd" d="M71.6517 1.69227C72.415 1.58514 73.1843 1.49905 73.9563 1.42386L72.6729 17.4674L71.6517 1.69227Z" fill="#4E4138"/>
<path fill-rule="evenodd" clip-rule="evenodd" d="M67.1614 2.51278C67.912 2.34318 68.6691 2.19409 69.4293 2.05551L68.159 17.4674L67.1614 2.51278Z" fill="#4E4138"/>
<path fill-rule="evenodd" clip-rule="evenodd" d="M62.699 3.71972C63.416 3.49371 64.1394 3.28521 64.8668 3.08807L63.6446 17.4674L62.699 3.71972Z" fill="#4E4138"/>
<path fill-rule="evenodd" clip-rule="evenodd" d="M58.2686 5.32714C58.9283 5.05653 59.5936 4.7973 60.2642 4.55161L59.1307 17.4674L58.2686 5.32714Z" fill="#4E4138"/>
<path fill-rule="evenodd" clip-rule="evenodd" d="M53.8744 7.35458C54.4488 7.0595 55.0272 6.77274 55.6112 6.49736L54.6162 17.4674L53.8744 7.35458Z" fill="#4E4138"/>
<path fill-rule="evenodd" clip-rule="evenodd" d="M49.5226 9.82836C49.9769 9.54337 50.4354 9.26578 50.897 8.99341L50.1023 17.4674L49.5226 9.82836Z" fill="#4E4138"/>
<path fill-rule="evenodd" clip-rule="evenodd" d="M80.2482 1.16946C81.0136 1.1817 81.7769 1.20527 82.5348 1.24857L81.515 17.4674L80.2482 1.16946Z" fill="#4E4138"/>
<path fill-rule="evenodd" clip-rule="evenodd" d="M112.675 12.1986C113.017 12.4486 113.357 12.7026 113.694 12.9596L113.277 17.4674L112.675 12.1986Z" fill="#4E4138"/>
<path fill-rule="evenodd" clip-rule="evenodd" d="M84.7459 1.42386C85.5179 1.49905 86.2873 1.58514 87.0505 1.69227L86.0293 17.4674L84.7459 1.42386Z" fill="#4E4138"/>
<path fill-rule="evenodd" clip-rule="evenodd" d="M89.2729 2.05551C90.0331 2.19409 90.7903 2.34318 91.5408 2.51278L90.5433 17.4674L89.2729 2.05551Z" fill="#4E4138"/>
<path fill-rule="evenodd" clip-rule="evenodd" d="M93.8354 3.08807C94.5629 3.28521 95.2864 3.49371 96.0032 3.71972L95.0577 17.4674L93.8354 3.08807Z" fill="#4E4138"/>
<path fill-rule="evenodd" clip-rule="evenodd" d="M98.4381 4.55161C99.1087 4.7973 99.774 5.05653 100.434 5.32714L99.5716 17.4674L98.4381 4.55161Z" fill="#4E4138"/>
<path fill-rule="evenodd" clip-rule="evenodd" d="M103.091 6.49736C103.675 6.77274 104.253 7.0595 104.828 7.35458L104.086 17.4674L103.091 6.49736Z" fill="#4E4138"/>
<path fill-rule="evenodd" clip-rule="evenodd" d="M107.805 8.99341C108.267 9.26578 108.725 9.54337 109.18 9.82836L108.6 17.4674L107.805 8.99341Z" fill="#4E4138"/>
<path fill-rule="evenodd" clip-rule="evenodd" d="M76.1674 134.252C76.9255 134.295 77.6887 134.319 78.4541 134.331L77.1873 118.033L76.1674 134.252Z" fill="#4E4138"/>
<path fill-rule="evenodd" clip-rule="evenodd" d="M45.0083 122.541C45.3453 122.798 45.685 123.052 46.0273 123.302L45.4253 118.033L45.0083 122.541Z" fill="#4E4138"/>
<path fill-rule="evenodd" clip-rule="evenodd" d="M71.6517 133.808C72.415 133.915 73.1843 134.001 73.9563 134.077L72.6729 118.033L71.6517 133.808Z" fill="#4E4138"/>
<path fill-rule="evenodd" clip-rule="evenodd" d="M67.1614 132.988C67.912 133.157 68.6691 133.306 69.4293 133.445L68.159 118.033L67.1614 132.988Z" fill="#4E4138"/>
<path fill-rule="evenodd" clip-rule="evenodd" d="M62.699 131.781C63.416 132.007 64.1394 132.215 64.8668 132.412L63.6446 118.033L62.699 131.781Z" fill="#4E4138"/>
<path fill-rule="evenodd" clip-rule="evenodd" d="M58.2686 130.173C58.9283 130.444 59.5936 130.703 60.2642 130.949L59.1307 118.033L58.2686 130.173Z" fill="#4E4138"/>
<path fill-rule="evenodd" clip-rule="evenodd" d="M53.8744 128.146C54.4488 128.441 55.0272 128.728 55.6112 129.003L54.6162 118.033L53.8744 128.146Z" fill="#4E4138"/>
<path fill-rule="evenodd" clip-rule="evenodd" d="M49.5226 125.672C49.9769 125.957 50.4354 126.235 50.897 126.507L50.1023 118.033L49.5226 125.672Z" fill="#4E4138"/>
<path fill-rule="evenodd" clip-rule="evenodd" d="M80.2482 134.331C81.0136 134.319 81.7769 134.295 82.5348 134.252L81.515 118.033L80.2482 134.331Z" fill="#4E4138"/>
<path fill-rule="evenodd" clip-rule="evenodd" d="M112.675 123.302C113.017 123.052 113.357 122.798 113.694 122.541L113.277 118.033L112.675 123.302Z" fill="#4E4138"/>
<path fill-rule="evenodd" clip-rule="evenodd" d="M84.7459 134.077C85.5179 134.001 86.2873 133.915 87.0505 133.808L86.0293 118.033L84.7459 134.077Z" fill="#4E4138"/>
<path fill-rule="evenodd" clip-rule="evenodd" d="M89.2729 133.445C90.0331 133.306 90.7903 133.157 91.5408 132.988L90.5433 118.033L89.2729 133.445Z" fill="#4E4138"/>
<path fill-rule="evenodd" clip-rule="evenodd" d="M93.8354 132.412C94.5629 132.215 95.2864 132.007 96.0032 131.781L95.0577 118.033L93.8354 132.412Z" fill="#4E4138"/>
<path fill-rule="evenodd" clip-rule="evenodd" d="M98.4381 130.949C99.1087 130.703 99.774 130.444 100.434 130.173L99.5716 118.033L98.4381 130.949Z" fill="#4E4138"/>
<path fill-rule="evenodd" clip-rule="evenodd" d="M103.091 129.003C103.675 128.728 104.253 128.441 104.828 128.146L104.086 118.033L103.091 129.003Z" fill="#4E4138"/>
<path fill-rule="evenodd" clip-rule="evenodd" d="M107.805 126.507C108.267 126.235 108.725 125.957 109.18 125.672L108.6 118.033L107.805 126.507Z" fill="#4E4138"/>
<path fill-rule="evenodd" clip-rule="evenodd" d="M94.9548 59.8105C94.0493 61.1173 92.5044 62.1072 92.5044 62.1072H89.7985V62.1071V62.1072H87.0925C87.0925 62.1072 85.5477 61.1173 84.6422 59.8105C84.4643 59.5539 84.3139 59.2699 84.1916 58.9684V58.9685C82.7831 58.5926 82.6657 56.9786 82.6751 55.7337C82.6836 54.5897 82.445 54.2516 81.3965 54.1073C81.2869 53.6271 81.2405 53.2781 81.6984 52.8875C82.9999 52.8875 83.989 53.3144 84.4091 54.5877C84.7736 54.0022 85.306 53.5595 86.0171 53.376V52.4957H86.1989L82.712 46.8173C82.5544 46.5606 82.5484 46.2611 82.6954 45.9983C82.8425 45.7354 83.1008 45.584 83.4021 45.584C87.2164 45.584 91.0306 45.584 94.8449 45.584C95.1155 45.584 95.3482 45.704 95.5049 45.9245C95.6616 46.145 95.6986 46.4041 95.6096 46.6596L93.5798 52.4957V53.376C96.0489 54.0133 96.3687 57.7703 94.9548 59.8105V59.8105ZM86.8912 52.4957H87.3643H87.7463C87.4363 51.5209 87.7781 51.1621 89.1652 50.9072C89.147 50.847 89.1372 50.7831 89.1372 50.717C89.1372 50.3518 89.4333 50.0557 89.7985 50.0557C90.1636 50.0557 90.4596 50.3518 90.4596 50.717C90.4596 50.7831 90.4498 50.847 90.4317 50.9072C91.7914 51.1572 92.0153 51.4369 91.7887 52.4957H92.2307H92.8876L93.6886 48.2011C93.73 47.9785 93.6759 47.7701 93.5311 47.5959C93.3864 47.4216 93.1914 47.3302 92.965 47.3302H85.7339C85.4774 47.3302 85.2568 47.4497 85.117 47.6647C84.977 47.8798 84.9569 48.1299 85.0608 48.3643L86.8912 52.4957ZM90.1745 28.9759C90.1579 28.7581 89.9962 28.4916 90.0138 27.9345C90.0452 26.9455 90.7456 26.4556 90.9201 25.1366C91.0605 24.0753 90.6987 23.0644 90.0862 22.2978C89.947 22.1236 89.6449 21.7856 89.4683 21.6754C89.521 21.7945 89.6036 21.9302 89.668 22.0551C91.275 25.1633 89.6858 25.8607 89.6077 27.1637C89.586 27.526 89.6805 27.8691 89.7921 28.1694C89.8471 28.3175 89.9066 28.4523 89.9725 28.5917C90.037 28.7278 90.1155 28.851 90.1745 28.9759V28.9759ZM90.8571 28.9191C90.8853 28.6455 90.8153 28.5026 90.9082 28.04C91.1918 26.629 92.4718 26.3441 93.0018 26.8644C93.4188 27.2733 93.2527 28.0054 92.6372 27.8897C92.2911 27.8247 92.2382 27.5285 92.1655 27.4311C91.9851 27.879 92.2187 28.2893 92.5432 28.4308C92.9292 28.5988 93.3601 28.4682 93.6494 28.1573C94.1287 27.6419 93.9467 26.6182 93.1413 26.1807C92.3861 25.7703 91.5453 25.9994 90.999 26.6339C90.4972 27.2167 90.431 28.1862 90.8571 28.9191V28.9191ZM91.0899 25.9002C91.4135 25.7279 91.7844 25.3582 91.9772 25.0274C92.478 24.1691 92.0218 23.0656 91.8421 22.1159C91.6921 21.3231 91.7529 21.2142 91.773 20.4914C91.6105 20.7149 91.4233 21.4325 91.3846 21.7726C91.2481 22.9773 91.7865 23.8724 91.6566 24.7651C91.5998 25.1563 91.4198 25.4827 91.1875 25.7728C91.1452 25.8256 91.117 25.8411 91.0899 25.9002V25.9002ZM90.5122 31.3813C91.0471 31.3813 91.6354 31.3054 92.0822 31.1179C92.251 31.0468 92.5529 30.878 92.444 30.6299C92.352 30.4199 92.1052 30.3919 91.8895 30.2697C92.3812 30.2917 93.5974 30.7078 92.8985 31.1762C92.1515 31.6768 90.1894 31.6642 89.2493 31.336L88.9313 31.1886C88.8715 31.1525 88.8856 31.166 88.8511 31.1231C89.5568 31.3161 89.6988 31.3813 90.5122 31.3813V31.3813ZM82.5391 29.6307C83.8587 29.7504 84.9504 30.323 85.8137 30.8078C86.9636 31.4536 87.7229 32.1138 88.0921 32.7808L88.3477 33.2439H88.3479C88.3528 32.615 88.3152 32.2153 88.1123 31.5596C88.0259 31.2803 87.8371 30.9534 88.0041 30.6746C88.2451 30.2722 89.0034 30.0657 89.6172 29.9763C90.7248 29.8151 92.9132 29.8927 93.4004 30.6638C93.5781 30.945 93.3911 31.2689 93.305 31.5441C92.9649 32.6269 92.9135 33.4071 93.2522 34.4849C93.4824 35.2176 93.9765 36.0902 94.2816 36.9152C94.3337 37.0559 94.3831 37.2099 94.423 37.3567C94.535 37.7697 94.6238 38.3078 94.364 38.6865C94.1297 39.0278 93.6652 39.2794 93.2689 39.4568C92.1617 39.9521 90.1348 39.9925 88.9222 39.7083C88.5478 39.6206 88.2035 39.5052 87.8966 39.3358C87.2261 38.9655 86.7077 38.6662 86.9286 37.6072C87.0865 36.8506 87.4259 36.2181 87.7149 35.5749C87.8194 35.3421 87.9069 35.1419 87.9804 34.9655C87.7982 34.3325 87.5374 33.7773 87.1732 33.4216C86.2646 32.5345 84.7884 32.0946 82.7443 32.0946C82.3098 32.0946 79.7577 32.2037 79.3607 32.2412C77.0653 32.457 76.9131 29.983 79.0151 29.5797C80.2594 29.3409 81.9511 29.5773 82.5391 29.6307ZM67.0185 34.4582C64.271 37.9489 62.6046 42.9877 62.955 47.588C63.4863 54.5687 68.6413 61.6593 75.649 62.7803C77.7543 63.1174 79.4776 62.7806 80.4643 61.83C83.3759 59.0254 80.1549 49.4696 79.0314 46.2859C78.3708 44.4139 77.5243 42.729 76.9829 40.9825C76.1287 38.2282 75.0139 34.1897 76.8632 31.5034C77.7642 30.1952 76.9956 29.7341 76.3366 29.6799C73.287 29.4297 68.8323 32.1536 67.0185 34.4582V34.4582ZM78.1457 47.84C76.4478 46.8415 74.8226 45.7179 73.3087 43.5336C74.3238 45.5354 76.1585 47.4577 78.3943 48.7204C78.8353 50.2841 79.2743 51.8555 79.6518 53.4386C79.6991 53.6373 79.7418 53.8374 79.7796 54.0382C76.9765 52.7399 74.2217 50.8215 71.9412 48.0781C73.3828 50.6698 76.7358 53.326 79.9054 54.8225C80.07 56.0798 80.0632 57.3341 79.9245 58.4497C79.878 58.4197 79.8237 58.3916 79.7611 58.3674C77.0123 57.294 74.8517 56.5562 72.7004 54.7699C75.1623 56.9253 76.694 57.7127 79.8455 59.046C79.6402 60.4644 78.9102 62.084 76.7674 62.0567C76.4109 62.0519 75.6546 61.9449 74.942 61.623C74.8648 61.5854 74.7847 61.546 74.7021 61.5051C74.6699 61.4876 74.6383 61.4716 74.6076 61.4566C73.1424 60.6941 69.7738 58.2081 68.6839 56.8771C69.3512 56.936 69.8472 57.2305 70.7115 57.1771C69.4128 55.6767 68.502 54.9497 67.6099 52.8168L69.2545 53.2366C68.5551 51.5235 68.1003 50.0631 67.9953 48.3423C68.489 48.5526 68.9603 48.9625 69.941 49.3827C69.1206 46.7936 69.2969 45.4702 69.9496 43.3405C70.7621 43.6454 70.973 43.7963 71.6259 44.087C71.2115 42.9317 70.9087 40.7603 71.6067 39.6391C72.4955 40.1995 72.9176 40.2592 73.6435 40.8972C73.6028 39.6637 74.4425 36.6271 75.428 35.9394L75.4532 35.9666C75.4591 39.9894 77.0085 43.8039 78.1457 47.84V47.84Z" fill="#4E4138"/>
<path fill-rule="evenodd" clip-rule="evenodd" d="M43.5282 109.216V106.075L46.6269 109.216H48.7211L44.9289 105.382L48.2258 102.269H46.2731L43.5282 104.9V102.269H42V109.216H43.5282ZM52.8953 108.056C52.2302 108.056 51.6925 107.829 51.2538 107.391C50.8152 106.952 50.603 106.4 50.603 105.735C50.603 105.084 50.8152 104.533 51.2538 104.094C51.6925 103.655 52.2443 103.429 52.8953 103.429C53.5462 103.429 54.0839 103.655 54.5225 104.094C54.9611 104.533 55.1733 105.084 55.1733 105.735C55.1733 106.4 54.9611 106.952 54.5225 107.391C54.0839 107.829 53.5462 108.056 52.8953 108.056ZM52.8953 109.4C53.9989 109.4 54.9045 109.046 55.6261 108.339C56.3478 107.617 56.7016 106.754 56.7016 105.735C56.7016 104.717 56.3478 103.853 55.6261 103.146C54.9045 102.438 53.9989 102.085 52.8953 102.085C51.7774 102.085 50.8718 102.438 50.1502 103.146C49.4286 103.853 49.0748 104.717 49.0748 105.735C49.0748 106.768 49.4286 107.631 50.1502 108.339C50.8718 109.046 51.7774 109.4 52.8953 109.4ZM63.3377 112.046V109.329C64.5546 109.287 65.5168 108.947 66.21 108.282C66.9034 107.617 67.2572 106.768 67.2572 105.735C67.2572 103.684 65.8138 102.283 63.3377 102.155V99.3114H61.8095V102.155C59.3333 102.283 57.89 103.684 57.89 105.735C57.89 106.768 58.2439 107.617 58.9371 108.282C59.6304 108.947 60.5926 109.287 61.8095 109.329V112.046H63.3377ZM61.8095 108.042C60.3804 108.042 59.3758 107.108 59.3758 105.735C59.3758 104.363 60.3804 103.457 61.8095 103.443V108.042ZM63.3377 103.443C64.7668 103.457 65.7714 104.363 65.7714 105.735C65.7714 107.108 64.7668 108.042 63.3377 108.042V103.443ZM68.4458 105.735C68.4458 106.825 68.8137 107.702 69.5494 108.381C70.2994 109.06 71.205 109.4 72.2803 109.4C73.3558 109.4 74.2047 109.174 74.8414 108.721V107.433C74.1482 107.844 73.4122 108.056 72.6057 108.056C71.1909 108.056 70.172 107.363 69.988 106.188H75.3084V105.792C75.3084 104.533 74.8697 103.386 73.8368 102.651C73.3275 102.269 72.719 102.085 72.0115 102.085C70.9502 102.085 70.1013 102.438 69.4363 103.132C68.7713 103.825 68.4458 104.702 68.4458 105.735V105.735ZM70.0023 105.028C70.1013 104.122 70.8229 103.372 71.9407 103.372C72.5067 103.372 72.9453 103.542 73.2708 103.882C73.5963 104.221 73.752 104.603 73.766 105.028H70.0023ZM82.1428 109.216L85.8925 104.49V109.216H87.4206V102.269H85.9915L82.2418 106.981V102.269H80.7137V109.216H82.1428ZM99.1791 109.216V102.269H97.6509V105.353C97.184 105.594 96.6606 105.707 96.0803 105.707C94.8917 105.707 94.4673 105.24 94.4673 103.896V102.269H92.9392V104.023C92.9392 106.216 93.9014 107.037 95.8256 107.037C96.519 107.037 97.1275 106.924 97.6509 106.712V109.216H99.1791ZM107.881 108.028C107.542 108.028 107.301 107.773 107.301 107.334V104.745C107.301 103.047 106.013 102.085 104.089 102.085C103.084 102.085 102.25 102.283 101.556 102.679V104.023C102.221 103.613 102.957 103.401 103.749 103.401C105.108 103.401 105.787 103.91 105.787 104.915V105.297C105.15 104.943 104.4 104.759 103.565 104.759C102.787 104.759 102.122 104.957 101.585 105.367C101.047 105.764 100.778 106.33 100.778 107.065C100.778 107.787 101.019 108.367 101.514 108.778C102.009 109.188 102.632 109.4 103.382 109.4C104.457 109.4 105.306 109.046 105.943 108.325C106.127 108.99 106.622 109.315 107.4 109.315C107.782 109.315 108.079 109.244 108.292 109.089V107.928C108.164 107.999 108.037 108.028 107.881 108.028V108.028ZM105.787 107.249C105.348 107.716 104.598 108.084 103.806 108.084C102.915 108.084 102.306 107.716 102.306 106.981C102.306 106.301 102.915 105.905 103.933 105.905C104.584 105.905 105.207 106.075 105.787 106.4V107.249ZM111.235 109.216L114.984 104.49V109.216H116.513V102.269H115.083L111.334 106.981V102.269H109.806V109.216H111.235ZM113.159 101.335C114.574 101.335 115.593 100.429 115.607 99H114.305C114.291 99.6793 113.824 100.16 113.145 100.16C112.451 100.16 111.999 99.6793 111.999 99H110.711C110.725 100.429 111.73 101.335 113.159 101.335V101.335Z" fill="#4E4138"/>
<path d="M209.234 53.2695L222.633 82H219.547L215.035 72.5469H202.652L198.16 82H194.957L208.531 53.2695H209.234ZM208.883 59.3633L203.941 69.7734H213.766L208.883 59.3633ZM226.832 79.6758L235.035 60.75H236.461L244.605 79.6758H247.164V84.7148H244.527V82H226.949V84.832H224.254V79.6758H226.832ZM235.699 64.9688L229.488 79.6758H241.656L235.699 64.9688ZM273.941 60.75H274.723L281.93 82H279.078L273.824 66.3555L265.66 82H265.152L256.969 66.3555L251.734 82H248.883L256.129 60.75H256.871L265.426 77.3711L273.941 60.75ZM288.766 60.75V76.4727L304.371 60.75H304.586V82H301.852V66.4141L286.363 82H286.031V60.75H288.766ZM325.777 71.7656H313.434V82H310.68V60.75H313.434V69.1875H325.777V60.75H328.512V82H325.777V71.7656ZM345.719 60.75H363.551V82H360.816V63.3281H348.453V82H345.719V60.75ZM390.836 60.75V82H388.141V78.3477C386.995 79.7409 385.706 80.7891 384.273 81.4922C382.854 82.1953 381.298 82.5469 379.605 82.5469C376.598 82.5469 374.026 81.4596 371.891 79.2852C369.768 77.0977 368.707 74.4414 368.707 71.3164C368.707 68.2565 369.781 65.6393 371.93 63.4648C374.078 61.2904 376.663 60.2031 379.684 60.2031C381.428 60.2031 383.004 60.5742 384.41 61.3164C385.829 62.0586 387.073 63.1719 388.141 64.6562V60.75H390.836ZM379.898 62.8398C378.375 62.8398 376.969 63.2174 375.68 63.9727C374.391 64.7148 373.362 65.763 372.594 67.1172C371.839 68.4714 371.461 69.9036 371.461 71.4141C371.461 72.9115 371.845 74.3438 372.613 75.7109C373.382 77.0781 374.41 78.1458 375.699 78.9141C377.001 79.6693 378.395 80.0469 379.879 80.0469C381.376 80.0469 382.796 79.6693 384.137 78.9141C385.478 78.1589 386.507 77.1367 387.223 75.8477C387.952 74.5586 388.316 73.1068 388.316 71.4922C388.316 69.0312 387.503 66.974 385.875 65.3203C384.26 63.6667 382.268 62.8398 379.898 62.8398ZM412.105 71.7656H399.762V82H397.008V60.75H399.762V69.1875H412.105V60.75H414.84V82H412.105V71.7656ZM438.844 74.9492L441.148 76.1602C440.393 77.6445 439.521 78.8424 438.531 79.7539C437.542 80.6654 436.428 81.362 435.191 81.8438C433.954 82.3125 432.555 82.5469 430.992 82.5469C427.529 82.5469 424.82 81.4141 422.867 79.1484C420.914 76.8698 419.938 74.2982 419.938 71.4336C419.938 68.7383 420.764 66.3359 422.418 64.2266C424.514 61.5443 427.32 60.2031 430.836 60.2031C434.456 60.2031 437.346 61.5768 439.508 64.3242C441.044 66.2643 441.826 68.6862 441.852 71.5898H422.75C422.802 74.0638 423.59 76.0951 425.113 77.6836C426.637 79.2591 428.518 80.0469 430.758 80.0469C431.839 80.0469 432.887 79.8581 433.902 79.4805C434.931 79.1029 435.803 78.6016 436.52 77.9766C437.236 77.3516 438.01 76.3424 438.844 74.9492ZM438.844 69.2266C438.479 67.7682 437.945 66.6029 437.242 65.7305C436.552 64.8581 435.634 64.1549 434.488 63.6211C433.342 63.0872 432.138 62.8203 430.875 62.8203C428.792 62.8203 427.001 63.4909 425.504 64.832C424.41 65.8086 423.583 67.2734 423.023 69.2266H438.844ZM464.957 82H462.047L454.938 66.5312L447.887 82H444.957L454.684 60.75H455.172L464.957 82ZM471.871 69.168H474.469C476.539 69.168 478.16 69.3307 479.332 69.6562C480.504 69.9818 481.513 70.7044 482.359 71.8242C483.206 72.931 483.629 74.207 483.629 75.6523C483.629 77.3971 483.017 78.8945 481.793 80.1445C480.569 81.3815 478.714 82 476.227 82H469.156V60.75H471.871V69.168ZM471.969 71.668V79.6953H475.113C478.811 79.6953 480.66 78.3932 480.66 75.7891C480.66 75.0469 480.458 74.3177 480.055 73.6016C479.664 72.8854 479.085 72.3841 478.316 72.0977C477.561 71.8112 476.22 71.668 474.293 71.668H471.969Z" fill="#4E4138"/>
</svg>
